<svg width="24" height="24" viewBox="0 0 24 24" fill="none" xmlns="http://www.w3.org/2000/svg">
<g clip-path="url(#clip0_809_73698)">
<path d="M12 24C5.37258 24 -2.89694e-07 18.6274 0 12C2.89694e-07 5.37258 5.37258 -2.89694e-07 12 0C18.6274 2.89694e-07 24 5.37258 24 12C24 18.6274 18.6274 24 12 24Z" fill="#FFDB44"/>
<path d="M23.2445 7.8C21.542 3.244 17.1498 2.25106e-07 12 0C6.85017 -2.25106e-07 2.45801 3.244 0.755531 7.8L23.2445 7.8Z" fill="#D90026"/>
<path d="M0.75553 16.2C2.45801 20.756 6.85017 24 12 24C17.1498 24 21.542 20.756 23.2445 16.2L0.75553 16.2Z" fill="#D90026"/>
</g>
<defs>
<clipPath id="clip0_809_73698">
<rect width="24" height="24" fill="white"/>
</clipPath>
</defs>
</svg>
