<svg width="24" height="24" viewBox="0 0 24 24" fill="none" xmlns="http://www.w3.org/2000/svg">
  <circle cx="12" cy="12" r="12" fill="#FFFFFF"/>
  <path d="M0 8H24V16H0V8Z" fill="#FFFFFF"/>
  <path d="M0 16H24C21.5 20.5 17 24 12 24C7 24 2.5 20.5 0 16Z" fill="#138808"/>
  <path d="M24 8H0C2.5 3.5 7 0 12 0C17 0 21.5 3.5 24 8Z" fill="#FF9933"/>
  <circle cx="12" cy="12" r="4" fill="#000080"/>
  <path d="M12 8.5L12.5 10H13.5L12.75 10.5L13 11.5L12 11L11 11.5L11.25 10.5L10.5 10H11.5L12 8.5Z" fill="#000080"/>
  <circle cx="12" cy="12" r="1" fill="#FFFFFF"/>
</svg>
