<?xml version="1.0" encoding="UTF-8"?>
<svg version="1.1" xmlns="http://www.w3.org/2000/svg" width="983" height="117">
<path d="M0 0 C9.57 0 19.14 0 29 0 C31.92562184 6.7186649 34.84562014 13.43926559 37.75244141 20.16601562 C38.74054539 22.44828776 39.73169298 24.72924491 40.72607422 27.00878906 C51.32365493 51.31399428 51.32365493 51.31399428 54 63 C54.03738281 62.03239746 54.07476563 61.06479492 54.11328125 60.06787109 C54.62429995 48.78025685 55.97119833 37.68941321 57.58398438 26.51074219 C58.00632736 23.58110948 58.41796768 20.65011135 58.828125 17.71875 C59.09314203 15.84626802 59.35874444 13.97386877 59.625 12.1015625 C59.74794434 11.22980377 59.87088867 10.35804504 59.99755859 9.45986938 C60.17279053 8.25117691 60.17279053 8.25117691 60.3515625 7.01806641 C60.50359131 5.95913681 60.50359131 5.95913681 60.65869141 4.8788147 C61 3 61 3 62 0 C71.57 0 81.14 0 91 0 C91 9 91 9 90.43054199 12.94824219 C90.24122353 14.28996742 90.24122353 14.28996742 90.04808044 15.65879822 C89.90781937 16.61186356 89.76755829 17.56492889 89.62304688 18.546875 C89.47674332 19.57216812 89.33043976 20.59746124 89.17970276 21.65382385 C88.69802814 25.02000261 88.2084448 28.38497945 87.71875 31.75 C87.38195675 34.09262173 87.04566016 36.43531491 86.70983887 38.77807617 C85.82703854 44.9272155 84.93751398 51.07536372 84.04656982 57.22332764 C83.13764828 63.50376745 82.23511131 69.7851243 81.33203125 76.06640625 C79.56092288 88.37851045 77.78211774 100.68948453 76 113 C65.77 113 55.54 113 45 113 C42.68109212 107.77858382 40.36768082 102.55530568 38.06640625 97.32617188 C37.28578309 95.55633281 36.50235561 93.78772739 35.71582031 92.02050781 C29.93005491 79.01363366 24.37226851 65.87485105 21 52 C20.98582031 53.24265625 20.97164062 54.4853125 20.95703125 55.765625 C20.66288595 68.75336571 19.31199392 81.46390297 17.5 94.3125 C17.38645172 95.12424683 17.27290344 95.93599365 17.15591431 96.77233887 C16.82854313 99.09520901 16.49437953 101.4169547 16.15625 103.73828125 C16.05519455 104.44251724 15.9541391 105.14675323 15.85002136 105.87232971 C15.11822933 110.76354134 15.11822933 110.76354134 14 113 C4.43 113 -5.14 113 -15 113 C-15 104 -15 104 -14.43054199 100.05175781 C-14.30432968 99.15727432 -14.17811737 98.26279083 -14.04808044 97.34120178 C-13.83768883 95.91160378 -13.83768883 95.91160378 -13.62304688 94.453125 C-13.47674332 93.42783188 -13.33043976 92.40253876 -13.17970276 91.34617615 C-12.69802814 87.97999739 -12.2084448 84.61502055 -11.71875 81.25 C-11.38195675 78.90737827 -11.04566016 76.56468509 -10.70983887 74.22192383 C-9.82703854 68.0727845 -8.93751398 61.92463628 -8.04656982 55.77667236 C-7.13764828 49.49623255 -6.23511131 43.2148757 -5.33203125 36.93359375 C-3.56092288 24.62148955 -1.78211774 12.31051547 0 0 Z " fill="#00F800" transform="translate(650,2)"/>
<path d="M0 0 C9.57 0 19.14 0 29 0 C31.92562184 6.7186649 34.84562014 13.43926559 37.75244141 20.16601562 C38.74054539 22.44828776 39.73169298 24.72924491 40.72607422 27.00878906 C51.32365493 51.31399428 51.32365493 51.31399428 54 63 C54.03738281 62.03239746 54.07476562 61.06479492 54.11328125 60.06787109 C54.62429995 48.78025685 55.97119833 37.68941321 57.58398438 26.51074219 C58.00632736 23.58110948 58.41796768 20.65011135 58.828125 17.71875 C59.09314203 15.84626802 59.35874444 13.97386877 59.625 12.1015625 C59.74794434 11.22980377 59.87088867 10.35804504 59.99755859 9.45986938 C60.17279053 8.25117691 60.17279053 8.25117691 60.3515625 7.01806641 C60.50359131 5.95913681 60.50359131 5.95913681 60.65869141 4.8788147 C61 3 61 3 62 0 C71.57 0 81.14 0 91 0 C91 9 91 9 90.43054199 12.94824219 C90.24122353 14.28996742 90.24122353 14.28996742 90.04808044 15.65879822 C89.90781937 16.61186356 89.76755829 17.56492889 89.62304688 18.546875 C89.47674332 19.57216812 89.33043976 20.59746124 89.17970276 21.65382385 C88.69802814 25.02000261 88.2084448 28.38497945 87.71875 31.75 C87.38195675 34.09262173 87.04566016 36.43531491 86.70983887 38.77807617 C85.82703854 44.9272155 84.93751398 51.07536372 84.04656982 57.22332764 C83.13764828 63.50376745 82.23511131 69.7851243 81.33203125 76.06640625 C79.56092288 88.37851045 77.78211774 100.68948453 76 113 C65.77 113 55.54 113 45 113 C42.68109212 107.77858382 40.36768082 102.55530568 38.06640625 97.32617188 C37.28578309 95.55633281 36.50235561 93.78772739 35.71582031 92.02050781 C29.93005491 79.01363366 24.37226851 65.87485105 21 52 C20.98582031 53.24265625 20.97164063 54.4853125 20.95703125 55.765625 C20.66288595 68.75336571 19.31199392 81.46390297 17.5 94.3125 C17.38645172 95.12424683 17.27290344 95.93599365 17.15591431 96.77233887 C16.82854313 99.09520901 16.49437953 101.4169547 16.15625 103.73828125 C16.05519455 104.44251724 15.9541391 105.14675323 15.85002136 105.87232971 C15.11822933 110.76354134 15.11822933 110.76354134 14 113 C4.43 113 -5.14 113 -15 113 C-15 104 -15 104 -14.43054199 100.05175781 C-14.30432968 99.15727432 -14.17811737 98.26279083 -14.04808044 97.34120178 C-13.83768883 95.91160378 -13.83768883 95.91160378 -13.62304688 94.453125 C-13.47674332 93.42783188 -13.33043976 92.40253876 -13.17970276 91.34617615 C-12.69802814 87.97999739 -12.2084448 84.61502055 -11.71875 81.25 C-11.38195675 78.90737827 -11.04566016 76.56468509 -10.70983887 74.22192383 C-9.82703854 68.0727845 -8.93751398 61.92463628 -8.04656982 55.77667236 C-7.13764828 49.49623255 -6.23511131 43.2148757 -5.33203125 36.93359375 C-3.56092288 24.62148955 -1.78211774 12.31051547 0 0 Z " fill="#FFFFFF" transform="translate(404,2)"/>
<path d="M0 0 C7.22451141 -0.0933465 14.44888938 -0.16408832 21.67388535 -0.20724869 C25.03012398 -0.22798112 28.38563338 -0.25824185 31.74169922 -0.30175781 C35.61436659 -0.35068783 39.48645316 -0.3730637 43.359375 -0.390625 C44.544245 -0.41127014 45.72911499 -0.43191528 46.94989014 -0.45318604 C58.82020241 -0.45633116 68.33782466 2.18358277 76.93359375 10.55859375 C82.83798741 17.53448418 84.38623191 25.75829131 84.27734375 34.69921875 C83.25901195 46.8188015 79.81883645 57.83733354 70.6875 66.25 C66.7827788 69.38428294 62.44408046 71.72253473 58 74 C61.56657249 81.55274173 66.80623332 88.32010799 71.60546875 95.12890625 C72.23614258 96.02416016 72.86681641 96.91941406 73.51660156 97.84179688 C74.78706193 99.64123896 76.06109743 101.43816275 77.33886719 103.23242188 C77.92700195 104.06451172 78.51513672 104.89660156 79.12109375 105.75390625 C79.6514624 106.49970947 80.18183105 107.2455127 80.72827148 108.01391602 C82 110 82 110 83 113 C51.24342516 116.15937455 51.24342516 116.15937455 43.11669922 111.26269531 C38.76617921 106.76705925 36.37555584 101.3835816 34.10595703 95.6171875 C32.44923996 91.69665614 30.11155405 88.35335796 27.6875 84.875 C24 79.24775583 24 79.24775583 24 77 C22.35 77 20.7 77 19 77 C18.96261719 77.75539063 18.92523438 78.51078125 18.88671875 79.2890625 C18.2097186 90.62549633 16.59619175 101.75725814 15 113 C5.1 113 -4.8 113 -15 113 C-15 104 -15 104 -14.43054199 100.05175781 C-14.30432968 99.15727432 -14.17811737 98.26279083 -14.04808044 97.34120178 C-13.83768883 95.91160378 -13.83768883 95.91160378 -13.62304688 94.453125 C-13.47674332 93.42783188 -13.33043976 92.40253876 -13.17970276 91.34617615 C-12.69802814 87.97999739 -12.2084448 84.61502055 -11.71875 81.25 C-11.38195675 78.90737827 -11.04566016 76.56468509 -10.70983887 74.22192383 C-9.82703854 68.0727845 -8.93751398 61.92463628 -8.04656982 55.77667236 C-7.13764828 49.49623255 -6.23511131 43.2148757 -5.33203125 36.93359375 C-3.56092318 24.62149166 -1.78270765 12.31042751 0 0 Z M26 28 C25.70195916 29.77533555 25.46131443 31.56038886 25.24609375 33.34765625 C25.04790039 34.96704102 25.04790039 34.96704102 24.84570312 36.61914062 C24.71099609 37.75544922 24.57628906 38.89175781 24.4375 40.0625 C24.29892578 41.20267578 24.16035156 42.34285156 24.01757812 43.51757812 C23.67454899 46.34461136 23.33553857 49.17206953 23 52 C26.04221065 52.08132642 29.0822238 52.14065374 32.125 52.1875 C33.40890625 52.22520508 33.40890625 52.22520508 34.71875 52.26367188 C39.93077787 52.32381066 43.49783561 51.92812524 48 49 C50.87823073 46.12176927 52.68590471 43.92265491 54 40.0625 C54 35.96571033 53.06576514 33.53179202 51 30 C45.93696121 26.62723724 41.54475666 26.59969349 35.6875 26.75 C34.86443359 26.75515625 34.04136719 26.7603125 33.19335938 26.765625 C29.28203977 26.44826595 29.28203977 26.44826595 26 28 Z " fill="#FFFFFF" transform="translate(113,2)"/>
<path d="M0 0 C26.4 0 52.8 0 80 0 C78.86153846 14.8 78.86153846 14.8 78 20.75 C77.835 21.92046875 77.67 23.0909375 77.5 24.296875 C77 27 77 27 76 28 C74.43452952 28.09326716 72.86487228 28.11745582 71.29663086 28.11352539 C70.29566879 28.11344986 69.29470673 28.11337433 68.26341248 28.11329651 C67.1748848 28.10813522 66.08635712 28.10297394 64.96484375 28.09765625 C63.85645645 28.0962413 62.74806915 28.09482635 61.60609436 28.09336853 C58.04986931 28.08775033 54.49370617 28.07519475 50.9375 28.0625 C48.53320403 28.05748734 46.12890708 28.05292403 43.72460938 28.04882812 C37.81638496 28.03777499 31.9081969 28.02101917 26 28 C25.90912109 29.37285156 25.90912109 29.37285156 25.81640625 30.7734375 C25.73261719 31.96195313 25.64882813 33.15046875 25.5625 34.375 C25.48128906 35.55835938 25.40007812 36.74171875 25.31640625 37.9609375 C25 41 25 41 24 43 C39.18 43 54.36 43 70 43 C69.27549726 51.69403283 68.2337837 60.36351409 67 69 C51.82 69.33 36.64 69.66 21 70 C20.34 74.62 19.68 79.24 19 84 C43.255 84.495 43.255 84.495 68 85 C67.28006899 94.35910308 66.24058805 103.69558963 65 113 C38.6 113 12.2 113 -15 113 C-15 104 -15 104 -14.43054199 100.05175781 C-14.30432968 99.15727432 -14.17811737 98.26279083 -14.04808044 97.34120178 C-13.83768883 95.91160378 -13.83768883 95.91160378 -13.62304688 94.453125 C-13.47674332 93.42783188 -13.33043976 92.40253876 -13.17970276 91.34617615 C-12.69802814 87.97999739 -12.2084448 84.61502055 -11.71875 81.25 C-11.38195675 78.90737827 -11.04566016 76.56468509 -10.70983887 74.22192383 C-9.82703854 68.0727845 -8.93751398 61.92463628 -8.04656982 55.77667236 C-6.9776846 48.39092015 -5.91718281 41.00396008 -4.85527039 33.61720276 C-3.24325594 22.41053176 -1.62062216 11.20544465 0 0 Z " fill="#FFFFFF" transform="translate(310,2)"/>
<path d="M0 0 C26.4 0 52.8 0 80 0 C78.86153846 14.8 78.86153846 14.8 78 20.75 C77.835 21.92046875 77.67 23.0909375 77.5 24.296875 C77 27 77 27 76 28 C74.43452952 28.09326716 72.86487228 28.11745582 71.29663086 28.11352539 C70.29566879 28.11344986 69.29470673 28.11337433 68.26341248 28.11329651 C67.1748848 28.10813522 66.08635712 28.10297394 64.96484375 28.09765625 C63.85645645 28.0962413 62.74806915 28.09482635 61.60609436 28.09336853 C58.04986931 28.08775033 54.49370617 28.07519475 50.9375 28.0625 C48.53320403 28.05748734 46.12890708 28.05292403 43.72460938 28.04882812 C37.81638496 28.03777499 31.9081969 28.02101917 26 28 C25.90912109 29.37285156 25.90912109 29.37285156 25.81640625 30.7734375 C25.73261719 31.96195313 25.64882812 33.15046875 25.5625 34.375 C25.48128906 35.55835938 25.40007812 36.74171875 25.31640625 37.9609375 C25 41 25 41 24 43 C39.18 43 54.36 43 70 43 C69.27549726 51.69403283 68.2337837 60.36351409 67 69 C51.82 69.33 36.64 69.66 21 70 C20.34 74.62 19.68 79.24 19 84 C43.255 84.495 43.255 84.495 68 85 C67.28006899 94.35910308 66.24058805 103.69558963 65 113 C38.6 113 12.2 113 -15 113 C-15 104 -15 104 -14.43054199 100.05175781 C-14.30432968 99.15727432 -14.17811737 98.26279083 -14.04808044 97.34120178 C-13.83768883 95.91160378 -13.83768883 95.91160378 -13.62304688 94.453125 C-13.47674332 93.42783188 -13.33043976 92.40253876 -13.17970276 91.34617615 C-12.69802814 87.97999739 -12.2084448 84.61502055 -11.71875 81.25 C-11.38195675 78.90737827 -11.04566016 76.56468509 -10.70983887 74.22192383 C-9.82703854 68.0727845 -8.93751398 61.92463628 -8.04656982 55.77667236 C-6.9776846 48.39092015 -5.91718281 41.00396008 -4.85527039 33.61720276 C-3.24325594 22.41053176 -1.62062216 11.20544465 0 0 Z " fill="#FFFFFF" transform="translate(216,2)"/>
<path d="M0 0 C1.093125 0.598125 2.18625 1.19625 3.3125 1.8125 C8.47751926 6.01658544 12.50461854 10.76154634 15 17 C15 18.32 15 19.64 15 21 C2.625 26.445 2.625 26.445 -10 32 C-11.8542837 30.1457163 -13.69148058 28.27394539 -15.5 26.375 C-19.03876666 23.01317168 -21.9887002 22.65762399 -26.8046875 22.7109375 C-31.84917535 23.37515832 -36.8038219 26.03365218 -40 30 C-40.94616498 33.09215637 -40.94616498 33.09215637 -41.54296875 36.6796875 C-41.66560593 37.33991913 -41.7882431 38.00015076 -41.91459656 38.6803894 C-43.14419514 45.45927716 -44.15392521 52.27065443 -45.04516602 59.1015625 C-45.31723523 61.16084075 -45.60877366 63.21684703 -45.90039062 65.2734375 C-46.07670783 66.60140544 -46.2518826 67.92952568 -46.42578125 69.2578125 C-46.58473877 70.4348877 -46.74369629 71.61196289 -46.9074707 72.82470703 C-47.00571005 76.19594964 -46.57886741 78.04599001 -45 81 C-41.4029981 84.41254026 -38.45331776 85.30579582 -33.625 85.5 C-27.39026159 85.26216257 -22.69395318 83.5143563 -18.125 79.25 C-16.48704985 76.17747201 -16.48704985 76.17747201 -15 69 C-20.94 69 -26.88 69 -33 69 C-32.690625 66.15375 -32.38125 63.3075 -32.0625 60.375 C-31.96718994 59.48989746 -31.87187988 58.60479492 -31.77368164 57.69287109 C-31.65561157 56.61900146 -31.65561157 56.61900146 -31.53515625 55.5234375 C-31.456604 54.80075684 -31.37805176 54.07807617 -31.29711914 53.33349609 C-30.94203157 50.54473112 -30.46217164 47.77302986 -30 45 C-14.49 45 1.02 45 17 45 C12.3109099 89.54635596 12.3109099 89.54635596 -0.85546875 101.328125 C-12.09112329 110.0874331 -23.68359445 113.32074573 -37.75 113.4375 C-38.61278564 113.44765137 -39.47557129 113.45780273 -40.36450195 113.46826172 C-51.85416586 113.31250685 -61.25372779 109.47898766 -69.75 101.8125 C-76.9030698 94.10289845 -77.81206047 85.38313158 -77.4609375 75.23046875 C-76.95983184 66.92258982 -75.81607312 58.67912331 -74.6875 50.4375 C-74.52787277 49.25912567 -74.52787277 49.25912567 -74.36502075 48.0569458 C-72.14834134 31.94087717 -69.31796191 16.79763047 -56 6 C-40.93433263 -5.04638155 -16.98531497 -9.35001148 0 0 Z " fill="#FFFFFF" transform="translate(77,4)"/>
<path d="M0 0 C9.24 0 18.48 0 28 0 C31.18461385 12.45205942 34.03228613 24.95366923 36.765625 37.51171875 C37.20824923 39.53954944 37.65093844 41.56736595 38.09368896 43.59516907 C39.01311899 47.80940129 39.93052018 52.02406931 40.84667969 56.23901367 C42.02055924 61.6379784 43.20153704 67.03536434 44.38422012 72.43240643 C45.29708886 76.60345816 46.20526486 80.77552129 47.11211395 84.94788551 C47.54582324 86.93975099 47.98121763 88.93125033 48.41834259 90.922369 C49.02633223 93.69419082 49.62775042 96.46736058 50.22753906 99.2409668 C50.40826965 100.05812164 50.58900024 100.87527649 50.77520752 101.7171936 C50.93770996 102.47504654 51.1002124 103.23289948 51.26763916 104.01371765 C51.40993076 104.66676723 51.55222237 105.3198168 51.69882584 105.99265575 C52 108 52 108 52 113 C41.77 113 31.54 113 21 113 C19.6581843 108.9745529 18.60961921 105.53620874 17.875 101.4375 C17.70742188 100.52871094 17.53984375 99.61992188 17.3671875 98.68359375 C17 96 17 96 17 91 C7.1 91 -2.8 91 -13 91 C-13.66 92.98 -14.32 94.96 -15 97 C-15.55444203 98.37069527 -16.12810978 99.73387766 -16.7265625 101.0859375 C-17.14542725 102.03799072 -17.14542725 102.03799072 -17.57275391 103.00927734 C-17.91999512 103.78996582 -18.26723633 104.5706543 -18.625 105.375 C-19.73875 107.89125 -20.8525 110.4075 -22 113 C-32.56 113 -43.12 113 -54 113 C-53.25162452 109.25812259 -52.76408659 107.15672496 -51.13330078 103.94189453 C-50.7480423 103.17479156 -50.36278381 102.4076886 -49.96585083 101.61734009 C-49.33693436 100.38749893 -49.33693436 100.38749893 -48.6953125 99.1328125 C-48.04283035 97.8383168 -48.04283035 97.8383168 -47.37716675 96.51766968 C-46.44686487 94.67317084 -45.5139322 92.82999695 -44.57861328 90.98803711 C-42.14698078 86.19869307 -39.73443176 81.39975144 -37.3203125 76.6015625 C-36.84861633 75.66519958 -36.37692017 74.72883667 -35.89093018 73.76409912 C-32.51177879 67.04683264 -29.20914318 60.3004018 -26 53.5 C-21.68853017 44.37002944 -17.18827111 35.34272455 -12.65161133 26.32275391 C-8.28177416 17.61483614 -4.09806165 8.83895649 0 0 Z M9 33 C7.4270566 37.07269123 5.86066424 41.14782243 4.30029297 45.2253418 C3.76855937 46.61209913 3.23504198 47.99817385 2.69970703 49.38354492 C1.93051643 51.37502078 1.16777516 53.36886369 0.40625 55.36328125 C-0.05458984 56.56251221 -0.51542969 57.76174316 -0.99023438 58.99731445 C-2.15937336 61.94593251 -2.15937336 61.94593251 -2 65 C2.95 65 7.9 65 13 65 C12.49920885 54.23299038 11.59872012 43.66330796 10 33 C9.67 33 9.34 33 9 33 Z " fill="#00F800" transform="translate(787,2)"/>
<path d="M0 0 C1.50167725 -0.02779541 1.50167725 -0.02779541 3.03369141 -0.05615234 C14.88036293 0.04303995 24.33961042 4.04698928 32.734375 12.3359375 C35.84117165 15.71351 35.84117165 15.71351 36.875 17.5 C35.67893738 21.08818786 34.70114803 21.57654999 31.62109375 23.63671875 C30.76708984 24.21357422 29.91308594 24.79042969 29.03320312 25.38476562 C28.13537109 25.97966797 27.23753906 26.57457031 26.3125 27.1875 C25.41080078 27.79400391 24.50910156 28.40050781 23.58007812 29.02539062 C21.34971626 30.52409939 19.11465413 32.01522859 16.875 33.5 C13.70821715 31.93175477 10.68229902 30.22485055 7.65625 28.40234375 C2.44341493 25.76163125 -3.42582084 26.04338921 -9.125 26.5 C-12.95528161 27.90704223 -13.77382345 28.74975918 -15.5 32.4375 C-16.32372904 36.12200163 -16.32372904 36.12200163 -15.125 39.5 C-11.87464156 40.98427385 -8.60104044 41.96892302 -5.140625 42.83203125 C-3.73683594 43.19458008 -3.73683594 43.19458008 -2.3046875 43.56445312 C-0.36902662 44.05869187 1.56846789 44.54581015 3.5078125 45.02539062 C13.89559832 47.73617583 21.23792945 51.80302761 28.0625 60.1875 C33.09979117 69.39358386 32.33437019 79.56534049 29.875 89.5 C25.33439551 102.22810718 18.24930773 108.21750566 6.47265625 114.01953125 C-6.35085538 119.29652464 -23.66796742 120.08393441 -36.59375 114.75390625 C-37.84671875 114.13322266 -37.84671875 114.13322266 -39.125 113.5 C-40.43984375 112.86384766 -40.43984375 112.86384766 -41.78125 112.21484375 C-48.19244073 108.74855238 -52.61452608 104.16959012 -57.125 98.5 C-55.04328133 93.77307067 -51.67428775 91.17353368 -47.8125 87.875 C-46.81573242 86.99714844 -46.81573242 86.99714844 -45.79882812 86.1015625 C-42.40929214 83.1780458 -39.49599411 80.80199825 -35.125 79.5 C-34.465 80.2425 -33.805 80.985 -33.125 81.75 C-27.97761086 86.91205406 -21.10908491 89.59386867 -13.875 89.75 C-9.00828498 89.68564674 -5.49800787 88.64814422 -1.125 86.5 C0.80471145 84.18434626 0.85087241 82.98255172 1 80 C-0.77665802 76.05187107 -4.2346838 75.08143599 -8.125 73.5 C-11.21920683 72.58056716 -14.35044611 71.88927 -17.5 71.1875 C-28.00509925 68.61368479 -35.4311021 64.60736904 -41.87109375 55.6875 C-47.02512209 46.69604868 -47.54043645 37.33285097 -45.46875 27.33203125 C-42.34501167 17.7857792 -36.76612531 10.53502825 -27.875 5.78515625 C-18.42064292 1.36685585 -10.37684118 0.11927404 0 0 Z " fill="#00F800" transform="translate(946.125,-0.5)"/>
<path d="M0 0 C1.50167725 -0.02779541 1.50167725 -0.02779541 3.03369141 -0.05615234 C14.88036293 0.04303995 24.33961042 4.04698928 32.734375 12.3359375 C35.84117165 15.71351 35.84117165 15.71351 36.875 17.5 C35.67893738 21.08818786 34.70114803 21.57654999 31.62109375 23.63671875 C30.76708984 24.21357422 29.91308594 24.79042969 29.03320312 25.38476562 C28.13537109 25.97966797 27.23753906 26.57457031 26.3125 27.1875 C25.41080078 27.79400391 24.50910156 28.40050781 23.58007812 29.02539062 C21.34971626 30.52409939 19.11465413 32.01522859 16.875 33.5 C13.70821715 31.93175477 10.68229902 30.22485055 7.65625 28.40234375 C2.44341493 25.76163125 -3.42582084 26.04338921 -9.125 26.5 C-12.95528161 27.90704223 -13.77382345 28.74975918 -15.5 32.4375 C-16.32372904 36.12200163 -16.32372904 36.12200163 -15.125 39.5 C-11.87464156 40.98427385 -8.60104044 41.96892302 -5.140625 42.83203125 C-3.73683594 43.19458008 -3.73683594 43.19458008 -2.3046875 43.56445312 C-0.36902662 44.05869187 1.56846789 44.54581015 3.5078125 45.02539062 C13.89559832 47.73617583 21.23792945 51.80302761 28.0625 60.1875 C33.09979117 69.39358386 32.33437019 79.56534049 29.875 89.5 C25.33439551 102.22810718 18.24930773 108.21750566 6.47265625 114.01953125 C-6.35085538 119.29652464 -23.66796742 120.08393441 -36.59375 114.75390625 C-37.84671875 114.13322266 -37.84671875 114.13322266 -39.125 113.5 C-40.43984375 112.86384766 -40.43984375 112.86384766 -41.78125 112.21484375 C-48.19244073 108.74855238 -52.61452608 104.16959012 -57.125 98.5 C-55.04328133 93.77307067 -51.67428775 91.17353368 -47.8125 87.875 C-46.81573242 86.99714844 -46.81573242 86.99714844 -45.79882812 86.1015625 C-42.40929214 83.1780458 -39.49599411 80.80199825 -35.125 79.5 C-34.465 80.2425 -33.805 80.985 -33.125 81.75 C-27.97761086 86.91205406 -21.10908491 89.59386867 -13.875 89.75 C-9.00828498 89.68564674 -5.49800787 88.64814422 -1.125 86.5 C0.80471145 84.18434626 0.85087241 82.98255172 1 80 C-0.77665802 76.05187107 -4.2346838 75.08143599 -8.125 73.5 C-11.21920683 72.58056716 -14.35044611 71.88927 -17.5 71.1875 C-28.00509925 68.61368479 -35.4311021 64.60736904 -41.87109375 55.6875 C-47.02512209 46.69604868 -47.54043645 37.33285097 -45.46875 27.33203125 C-42.34501167 17.7857792 -36.76612531 10.53502825 -27.875 5.78515625 C-18.42064292 1.36685585 -10.37684118 0.11927404 0 0 Z " fill="#00F800" transform="translate(550.125,-0.5)"/>
<path d="M0 0 C9.9 0 19.8 0 30 0 C28.57397049 13.38333193 26.86304326 26.70301514 24.99609375 40.03125 C24.70976759 42.08579912 24.42356076 44.14036487 24.13746643 46.19494629 C23.54329047 50.45751415 22.9472259 54.71981256 22.34985352 58.98193359 C21.58352637 64.45113378 20.82278097 69.92109461 20.06347561 75.3912735 C19.47659736 79.61393596 18.88646689 83.836139 18.29536629 88.05821228 C18.01318224 90.07715117 17.73210366 92.09624488 17.45214653 94.11549377 C17.06317954 96.91797437 16.66976024 99.71979413 16.27514648 102.52148438 C16.16032425 103.3556337 16.04550201 104.18978302 15.92720032 105.04920959 C15.11421463 110.77157073 15.11421463 110.77157073 14 113 C4.43 113 -5.14 113 -15 113 C-15 104 -15 104 -14.43054199 100.05175781 C-14.30432968 99.15727432 -14.17811737 98.26279083 -14.04808044 97.34120178 C-13.83768883 95.91160378 -13.83768883 95.91160378 -13.62304688 94.453125 C-13.47674332 93.42783188 -13.33043976 92.40253876 -13.17970276 91.34617615 C-12.69802814 87.97999739 -12.2084448 84.61502055 -11.71875 81.25 C-11.38195675 78.90737827 -11.04566016 76.56468509 -10.70983887 74.22192383 C-9.82703854 68.0727845 -8.93751398 61.92463628 -8.04656982 55.77667236 C-7.13764828 49.49623255 -6.23511131 43.2148757 -5.33203125 36.93359375 C-3.56092288 24.62148955 -1.78211774 12.31051547 0 0 Z " fill="#00F800" transform="translate(861,2)"/>
<path d="M0 0 C9.9 0 19.8 0 30 0 C28.57397049 13.38333193 26.86304326 26.70301514 24.99609375 40.03125 C24.70976759 42.08579912 24.42356076 44.14036487 24.13746643 46.19494629 C23.54329047 50.45751415 22.9472259 54.71981256 22.34985352 58.98193359 C21.58352637 64.45113378 20.82278097 69.92109461 20.06347561 75.3912735 C19.47659736 79.61393596 18.88646689 83.836139 18.29536629 88.05821228 C18.01318224 90.07715117 17.73210366 92.09624488 17.45214653 94.11549377 C17.06317954 96.91797437 16.66976024 99.71979413 16.27514648 102.52148438 C16.16032425 103.3556337 16.04550201 104.18978302 15.92720032 105.04920959 C15.11421463 110.77157073 15.11421463 110.77157073 14 113 C4.43 113 -5.14 113 -15 113 C-15 104 -15 104 -14.43054199 100.05175781 C-14.30432968 99.15727432 -14.17811737 98.26279083 -14.04808044 97.34120178 C-13.83768883 95.91160378 -13.83768883 95.91160378 -13.62304688 94.453125 C-13.47674332 93.42783188 -13.33043976 92.40253876 -13.17970276 91.34617615 C-12.69802814 87.97999739 -12.2084448 84.61502055 -11.71875 81.25 C-11.38195675 78.90737827 -11.04566016 76.56468509 -10.70983887 74.22192383 C-9.82703854 68.0727845 -8.93751398 61.92463628 -8.04656982 55.77667236 C-7.13764828 49.49623255 -6.23511131 43.2148757 -5.33203125 36.93359375 C-3.56092288 24.62148955 -1.78211774 12.31051547 0 0 Z " fill="#00F800" transform="translate(603,2)"/>
</svg>
